<svg width="19" height="26" viewBox="0 0 19 26" fill="none" xmlns="http://www.w3.org/2000/svg">
<path d="M10.8412 13.3662L10.8411 13.3662L9.5864 14.9802L9.50395 15.0863L9.4041 14.9964L8.7531 14.4107L8.75304 14.4106C8.68979 14.3536 8.61556 14.3102 8.5349 14.2829C8.45425 14.2556 8.36887 14.2451 8.28401 14.252C8.19915 14.2589 8.1166 14.2831 8.04141 14.3231C7.96624 14.363 7.90002 14.4179 7.84682 14.4843C7.84681 14.4843 7.8468 14.4844 7.84679 14.4844L6.34682 16.3593L6.34681 16.3594C6.29551 16.4235 6.25734 16.497 6.23447 16.5759C6.21161 16.6548 6.2045 16.7373 6.21355 16.8189C6.22261 16.9006 6.24765 16.9796 6.28724 17.0515C6.32683 17.1234 6.38021 17.1869 6.44431 17.2382C6.50842 17.2895 6.582 17.3276 6.66086 17.3505C6.73971 17.3734 6.8223 17.3805 6.90391 17.3714C6.98551 17.3624 7.06454 17.3373 7.13646 17.2977C7.20838 17.2581 7.27179 17.2048 7.32309 17.1407C7.3231 17.1407 7.32311 17.1407 7.32311 17.1406L8.32659 15.8859L8.40934 15.7825L8.50783 15.8711L9.16702 16.4643C9.23086 16.5217 9.30583 16.5653 9.38726 16.5924C9.46869 16.6195 9.55484 16.6296 9.64033 16.622C9.72582 16.6144 9.80883 16.5892 9.88418 16.5481C9.95952 16.507 10.0256 16.4508 10.0783 16.383L10.0783 16.383L11.8287 14.1331L10.8412 13.3662ZM10.8412 13.3662C10.9429 13.2352 11.0924 13.15 11.257 13.1293C11.4215 13.1086 11.5875 13.1542 11.7184 13.2559C11.8494 13.3576 11.9346 13.5071 11.9553 13.6716C11.9759 13.8361 11.9305 14.002 11.8288 14.133L10.8412 13.3662ZM9.87996 5.509L9.8724 5.63377C9.92912 5.63721 9.98509 5.64853 10.0387 5.66741L10.0396 5.66771C10.0528 5.67224 10.062 5.67521 10.0693 5.67753C10.081 5.68128 10.0873 5.68331 10.0964 5.68752L10.0963 5.68755L10.0986 5.68857C10.1646 5.71773 10.2249 5.75822 10.2769 5.8082L14.7625 10.2938L14.7627 10.2942L14.7758 10.3079C14.8805 10.4168 14.9427 10.5596 14.9512 10.7105L15.076 10.7035M9.87996 5.509L9.87372 5.63384C9.85973 5.63314 9.84798 5.63081 9.83986 5.62888C9.83429 5.62755 9.82877 5.62598 9.82541 5.625L5.33509 5.625C4.77164 5.62556 4.23143 5.84964 3.83302 6.24806C3.43461 6.64646 3.21054 7.18664 3.20996 7.75007L3.20996 18.2499C3.21052 18.8133 3.4346 19.3535 3.83302 19.7519C4.23143 20.1504 4.77164 20.3744 5.33509 20.375H12.8348C13.3983 20.3744 13.9385 20.1504 14.3369 19.7519C14.7353 19.3535 14.9594 18.8133 14.96 18.2499V10.759C14.959 10.7556 14.9573 10.7495 14.9558 10.7433C14.9538 10.7346 14.9517 10.7229 14.9511 10.7092L15.076 10.7035M9.87996 5.509C9.8729 5.50865 9.86601 5.50663 9.85905 5.5046C9.85122 5.50231 9.8433 5.5 9.83496 5.5H5.33496L10.0802 5.5495C10.0157 5.52677 9.94827 5.51314 9.87996 5.509ZM15.076 10.7035C15.0659 10.5228 14.9914 10.3517 14.866 10.2213L14.4253 19.8403C14.8471 19.4185 15.0844 18.8466 15.085 18.25V10.75C15.085 10.7414 15.0827 10.7336 15.0805 10.7258C15.0784 10.7186 15.0763 10.7114 15.076 10.7035ZM10.6733 7.97211L10.46 7.75872V8.0605V9.25V9.25012C10.4602 9.48208 10.5524 9.70448 10.7165 9.8685C10.8805 10.0325 11.1029 10.1248 11.3348 10.125H11.335H12.5245H12.8262L12.6129 9.91161L10.6733 7.97211ZM13.71 18.2501V18.25V11.5V11.375H13.585H11.3351C10.7716 11.3744 10.2314 11.1504 9.83302 10.7519C9.4346 10.3535 9.21052 9.81332 9.20996 9.24988V7V6.875H9.08496L5.33496 6.875L5.33484 6.875C5.10288 6.87523 4.88048 6.96748 4.71646 7.1315C4.55244 7.29552 4.46019 7.51792 4.45996 7.74988V7.75L4.45996 18.25L4.45996 18.2501C4.46019 18.4821 4.55244 18.7045 4.71646 18.8685C4.88048 19.0325 5.10288 19.1248 5.33484 19.125H5.33496H12.835H12.8351C13.067 19.1248 13.2894 19.0325 13.4535 18.8685C13.6175 18.7045 13.7097 18.4821 13.71 18.2501ZM7.58496 11.375H6.83496C6.6692 11.375 6.51023 11.3092 6.39302 11.1919C6.27581 11.0747 6.20996 10.9158 6.20996 10.75C6.20996 10.5842 6.27581 10.4253 6.39302 10.3081C6.51023 10.1908 6.6692 10.125 6.83496 10.125H7.58496C7.75072 10.125 7.90969 10.1908 8.0269 10.3081C8.14411 10.4253 8.20996 10.5842 8.20996 10.75C8.20996 10.9158 8.14411 11.0747 8.0269 11.1919C7.90969 11.3092 7.75072 11.375 7.58496 11.375Z" fill="#0F1209" stroke="#F7FAF5" stroke-width="0.25"/>
</svg>
