<svg width="11" height="11" viewBox="0 0 11 11" fill="none" xmlns="http://www.w3.org/2000/svg">
<g clip-path="url(#clip0_595_27399)">
<path fill-rule="evenodd" clip-rule="evenodd" d="M5.84608 1.93539C5.80803 1.87832 5.75648 1.83153 5.696 1.79917C5.63553 1.76681 5.568 1.74988 5.49941 1.74988C5.43082 1.74988 5.36329 1.76681 5.30282 1.79917C5.24235 1.83153 5.1908 1.87832 5.15274 1.93539L3.48608 4.43539C3.44421 4.49814 3.42017 4.57108 3.41651 4.64642C3.41285 4.72177 3.42971 4.79669 3.4653 4.86321C3.50088 4.92972 3.55386 4.98532 3.61857 5.02409C3.68329 5.06285 3.75731 5.08332 3.83274 5.0833H7.16608C7.24151 5.08332 7.31554 5.06285 7.38025 5.02409C7.44496 4.98532 7.49794 4.92972 7.53353 4.86321C7.56911 4.79669 7.58598 4.72177 7.58232 4.64642C7.57866 4.57108 7.55461 4.49814 7.51274 4.43539L5.84608 1.93539ZM5.15274 10.0646C5.1908 10.1216 5.24235 10.1684 5.30282 10.2008C5.36329 10.2331 5.43082 10.2501 5.49941 10.2501C5.568 10.2501 5.63553 10.2331 5.696 10.2008C5.75648 10.1684 5.80803 10.1216 5.84608 10.0646L7.51274 7.56455C7.55461 7.5018 7.57866 7.42887 7.58232 7.35352C7.58598 7.27817 7.56911 7.20325 7.53353 7.13674C7.49794 7.07022 7.44496 7.01462 7.38025 6.97586C7.31554 6.93709 7.24151 6.91663 7.16608 6.91664H3.83274C3.75731 6.91663 3.68329 6.93709 3.61857 6.97586C3.55386 7.01462 3.50088 7.07022 3.4653 7.13674C3.42971 7.20325 3.41285 7.27817 3.41651 7.35352C3.42017 7.42887 3.44421 7.5018 3.48608 7.56455L5.15274 10.0646Z" fill="#9BEC00"/>
</g>
<defs>
<clipPath id="clip0_595_27399">
<rect width="10" height="10" fill="white" transform="translate(0.5 0.5)"/>
</clipPath>
</defs>
</svg>
