<svg width="95" height="56" viewBox="0 0 95 56" fill="none" xmlns="http://www.w3.org/2000/svg">
<line x1="0.777344" y1="43.4283" x2="89.0604" y2="43.4283" stroke="#242621" stroke-width="0.2" stroke-dasharray="0.8 0.8"/>
<g filter="url(#filter0_d_595_28022)">
<path d="M90 2.37503L74.671 21.292C74.229 21.8375 73.3772 21.7696 73.0272 21.1609L67.3182 11.2334C66.8622 10.4404 65.669 10.6253 65.4743 11.519L62.3351 25.9293C62.308 26.0536 62.2575 26.1715 62.1863 26.2768L53.845 38.6082C53.5718 39.0121 53.0471 39.16 52.6031 38.9583L46.6123 36.2369C46.144 36.0242 45.5906 36.2014 45.3331 36.6467L38.6802 48.1499C38.2699 48.8592 37.2275 48.8011 36.8986 48.0505L29.5924 31.3752C29.3856 30.9032 28.8539 30.6656 28.3643 30.8265L13.8616 35.5909C13.3883 35.7464 12.8728 35.5298 12.6525 35.083L6.4128 22.4241" stroke="#9BEC00"/>
</g>
<g filter="url(#filter1_d_595_28022)">
<path d="M34.9178 43.5285L36.8991 48.0505C37.228 48.8011 38.2704 48.8592 38.6807 48.1499L41.3535 43.5285" stroke="#CD0070"/>
</g>
<defs>
<filter id="filter0_d_595_28022" x="1.96484" y="0.0602417" width="92.4238" height="55.0891" filterUnits="userSpaceOnUse" color-interpolation-filters="sRGB">
<feFlood flood-opacity="0" result="BackgroundImageFix"/>
<feColorMatrix in="SourceAlpha" type="matrix" values="0 0 0 0 0 0 0 0 0 0 0 0 0 0 0 0 0 0 127 0" result="hardAlpha"/>
<feOffset dy="2"/>
<feGaussianBlur stdDeviation="2"/>
<feComposite in2="hardAlpha" operator="out"/>
<feColorMatrix type="matrix" values="0 0 0 0 0.607843 0 0 0 0 0.92549 0 0 0 0 0 0 0 0 1 0"/>
<feBlend mode="normal" in2="BackgroundImageFix" result="effect1_dropShadow_595_28022"/>
<feBlend mode="normal" in="SourceGraphic" in2="effect1_dropShadow_595_28022" result="shape"/>
</filter>
<filter id="filter1_d_595_28022" x="30.459" y="41.2781" width="15.3281" height="13.8712" filterUnits="userSpaceOnUse" color-interpolation-filters="sRGB">
<feFlood flood-opacity="0" result="BackgroundImageFix"/>
<feColorMatrix in="SourceAlpha" type="matrix" values="0 0 0 0 0 0 0 0 0 0 0 0 0 0 0 0 0 0 127 0" result="hardAlpha"/>
<feOffset dy="2"/>
<feGaussianBlur stdDeviation="2"/>
<feComposite in2="hardAlpha" operator="out"/>
<feColorMatrix type="matrix" values="0 0 0 0 0.803922 0 0 0 0 0 0 0 0 0 0.439216 0 0 0 1 0"/>
<feBlend mode="normal" in2="BackgroundImageFix" result="effect1_dropShadow_595_28022"/>
<feBlend mode="normal" in="SourceGraphic" in2="effect1_dropShadow_595_28022" result="shape"/>
</filter>
</defs>
</svg>
