<svg width="14" height="14" viewBox="0 0 14 14" fill="none" xmlns="http://www.w3.org/2000/svg">
<path d="M6.90896 8.03767L7.26251 8.39122L7.61606 8.03767L9.94674 5.70699C10.0104 5.64329 10.1255 5.64329 10.1892 5.70699C10.2529 5.7707 10.2529 5.88572 10.1892 5.94942L7.34457 8.79401C7.34381 8.79456 7.34276 8.79528 7.3414 8.79616C7.33507 8.80029 7.32555 8.80563 7.31372 8.8107C7.30197 8.81573 7.29052 8.8194 7.28051 8.82166C7.27045 8.82393 7.26437 8.82422 7.26251 8.82422C7.26147 8.82422 7.25902 8.82414 7.25429 8.82296C7.24937 8.82173 7.24041 8.81889 7.22715 8.81226C7.19969 8.79853 7.15605 8.76961 7.09813 8.7117L4.33586 5.94942C4.27215 5.88572 4.27215 5.7707 4.33585 5.70699C4.39956 5.64329 4.51458 5.64329 4.57828 5.70699L6.90896 8.03767Z" fill="#242621" stroke="#242621"/>
<rect x="13.5" y="13.5" width="13" height="13" rx="3.5" transform="rotate(-180 13.5 13.5)" stroke="#242621"/>
</svg>
