<svg width="15" height="15" viewBox="0 0 15 15" fill="none" xmlns="http://www.w3.org/2000/svg">
<path d="M2.83333 2.25H12.1667C12.3214 2.25 12.4697 2.31146 12.5791 2.42085C12.6885 2.53025 12.75 2.67862 12.75 2.83333V3.7585C12.75 3.9132 12.6885 4.06155 12.5791 4.17092L8.83758 7.91242C8.72818 8.02179 8.6667 8.17014 8.66667 8.32483V12.0027C8.66666 12.0914 8.64645 12.1789 8.60755 12.2586C8.56866 12.3383 8.51211 12.4081 8.44221 12.4626C8.3723 12.5172 8.29088 12.5551 8.20414 12.5734C8.11739 12.5918 8.0276 12.5901 7.94158 12.5686L6.77492 12.2769C6.64877 12.2453 6.53681 12.1725 6.4568 12.07C6.37679 11.9674 6.33334 11.8411 6.33333 11.7111V8.32483C6.3333 8.17014 6.27182 8.02179 6.16242 7.91242L2.42092 4.17092C2.31151 4.06155 2.25003 3.9132 2.25 3.7585V2.83333C2.25 2.67862 2.31146 2.53025 2.42085 2.42085C2.53025 2.31146 2.67862 2.25 2.83333 2.25Z" stroke="#9BEC00" stroke-width="1.5" stroke-linecap="round" stroke-linejoin="round"/>
</svg>
