<svg width="14" height="14" viewBox="0 0 14 14" fill="none" xmlns="http://www.w3.org/2000/svg">
<path d="M12.7192 5.85738H12.2493V5.83317H6.99935V8.1665H10.2961C9.8151 9.5248 8.52272 10.4998 6.99935 10.4998C5.06647 10.4998 3.49935 8.93271 3.49935 6.99984C3.49935 5.06696 5.06647 3.49984 6.99935 3.49984C7.89156 3.49984 8.70327 3.83642 9.32131 4.38621L10.9713 2.73625C9.92943 1.7653 8.53585 1.1665 6.99935 1.1665C3.77789 1.1665 1.16602 3.77838 1.16602 6.99984C1.16602 10.2213 3.77789 12.8332 6.99935 12.8332C10.2208 12.8332 12.8327 10.2213 12.8327 6.99984C12.8327 6.60871 12.7924 6.22692 12.7192 5.85738Z" fill="#FFC107"/>
<path d="M1.83984 4.28471L3.75639 5.69025C4.27497 4.40634 5.53089 3.49984 7.00059 3.49984C7.8928 3.49984 8.70451 3.83642 9.32255 4.38621L10.9725 2.73625C9.93068 1.7653 8.53709 1.1665 7.00059 1.1665C4.76001 1.1665 2.81693 2.43146 1.83984 4.28471Z" fill="#FF3D00"/>
<path d="M6.99977 12.8335C8.50652 12.8335 9.8756 12.2569 10.9107 11.3192L9.10531 9.79145C8.49997 10.2518 7.76027 10.5008 6.99977 10.5002C5.48252 10.5002 4.19422 9.53274 3.70889 8.18262L1.80664 9.64824C2.77206 11.5374 4.73264 12.8335 6.99977 12.8335Z" fill="#4CAF50"/>
<path d="M12.7199 5.8577H12.25V5.8335H7V8.16683H10.2967C10.0666 8.81328 9.65223 9.37817 9.10467 9.7917L9.10554 9.79112L10.911 11.3189C10.7832 11.435 12.8333 9.91683 12.8333 7.00016C12.8333 6.60904 12.7931 6.22725 12.7199 5.8577Z" fill="#1976D2"/>
</svg>
