<svg width="18" height="18" viewBox="0 0 18 18" fill="none" xmlns="http://www.w3.org/2000/svg">
<path d="M7.5 3.75H10.5C10.5 3.35218 10.342 2.97064 10.0607 2.68934C9.77936 2.40804 9.39782 2.25 9 2.25C8.60218 2.25 8.22064 2.40804 7.93934 2.68934C7.65804 2.97064 7.5 3.35218 7.5 3.75ZM6.375 3.75C6.375 3.40528 6.4429 3.06394 6.57482 2.74546C6.70673 2.42698 6.90009 2.1376 7.14384 1.89384C7.3876 1.65009 7.67698 1.45673 7.99546 1.32482C8.31394 1.1929 8.65528 1.125 9 1.125C9.34472 1.125 9.68606 1.1929 10.0045 1.32482C10.323 1.45673 10.6124 1.65009 10.8562 1.89384C11.0999 2.1376 11.2933 2.42698 11.4252 2.74546C11.5571 3.06394 11.625 3.40528 11.625 3.75H15.9375C16.0867 3.75 16.2298 3.80926 16.3352 3.91475C16.4407 4.02024 16.5 4.16332 16.5 4.3125C16.5 4.46168 16.4407 4.60476 16.3352 4.71025C16.2298 4.81574 16.0867 4.875 15.9375 4.875H14.9475L14.07 13.9583C14.0027 14.6542 13.6785 15.3002 13.1608 15.7701C12.643 16.2401 11.9687 16.5003 11.2695 16.5H6.7305C6.0314 16.5001 5.35733 16.2398 4.83971 15.7699C4.3221 15.3 3.99805 14.6541 3.93075 13.9583L3.0525 4.875H2.0625C1.91332 4.875 1.77024 4.81574 1.66475 4.71025C1.55926 4.60476 1.5 4.46168 1.5 4.3125C1.5 4.16332 1.55926 4.02024 1.66475 3.91475C1.77024 3.80926 1.91332 3.75 2.0625 3.75H6.375ZM7.875 7.3125C7.875 7.16332 7.81574 7.02024 7.71025 6.91475C7.60476 6.80926 7.46168 6.75 7.3125 6.75C7.16332 6.75 7.02024 6.80926 6.91475 6.91475C6.80926 7.02024 6.75 7.16332 6.75 7.3125V12.9375C6.75 13.0867 6.80926 13.2298 6.91475 13.3352C7.02024 13.4407 7.16332 13.5 7.3125 13.5C7.46168 13.5 7.60476 13.4407 7.71025 13.3352C7.81574 13.2298 7.875 13.0867 7.875 12.9375V7.3125ZM10.6875 6.75C10.8367 6.75 10.9798 6.80926 11.0852 6.91475C11.1907 7.02024 11.25 7.16332 11.25 7.3125V12.9375C11.25 13.0867 11.1907 13.2298 11.0852 13.3352C10.9798 13.4407 10.8367 13.5 10.6875 13.5C10.5383 13.5 10.3952 13.4407 10.2898 13.3352C10.1843 13.2298 10.125 13.0867 10.125 12.9375V7.3125C10.125 7.16332 10.1843 7.02024 10.2898 6.91475C10.3952 6.80926 10.5383 6.75 10.6875 6.75ZM5.0505 13.8502C5.09095 14.2677 5.28543 14.6552 5.59603 14.9371C5.90662 15.219 6.31106 15.3751 6.7305 15.375H11.2695C11.6889 15.3751 12.0934 15.219 12.404 14.9371C12.7146 14.6552 12.909 14.2677 12.9495 13.8502L13.818 4.875H4.182L5.0505 13.8502Z" fill="#242621"/>
</svg>
