<svg width="16" height="16" viewBox="0 0 16 16" fill="none" xmlns="http://www.w3.org/2000/svg">
<path d="M8 10C9.10457 10 10 9.10457 10 8C10 6.89543 9.10457 6 8 6C6.89543 6 6 6.89543 6 8C6 9.10457 6.89543 10 8 10Z" stroke="white" stroke-width="1.5" stroke-miterlimit="10" stroke-linecap="round" stroke-linejoin="round"/>
<path d="M1.33398 8.58667V7.41333C1.33398 6.72 1.90065 6.14667 2.60065 6.14667C3.80732 6.14667 4.30065 5.29333 3.69398 4.24667C3.34732 3.64667 3.55398 2.86667 4.16065 2.52L5.31398 1.86C5.84065 1.54666 6.52065 1.73333 6.83398 2.26L6.90732 2.38666C7.50732 3.43333 8.49398 3.43333 9.10065 2.38666L9.17398 2.26C9.48732 1.73333 10.1673 1.54666 10.694 1.86L11.8473 2.52C12.454 2.86667 12.6607 3.64667 12.314 4.24667C11.7073 5.29333 12.2007 6.14667 13.4073 6.14667C14.1007 6.14667 14.674 6.71333 14.674 7.41333V8.58667C14.674 9.28 14.1073 9.85333 13.4073 9.85333C12.2007 9.85333 11.7073 10.7067 12.314 11.7533C12.6607 12.36 12.454 13.1333 11.8473 13.48L10.694 14.14C10.1673 14.4533 9.48732 14.2667 9.17398 13.74L9.10065 13.6133C8.50065 12.5667 7.51398 12.5667 6.90732 13.6133L6.83398 13.74C6.52065 14.2667 5.84065 14.4533 5.31398 14.14L4.16065 13.48C3.55398 13.1333 3.34732 12.3533 3.69398 11.7533C4.30065 10.7067 3.80732 9.85333 2.60065 9.85333C1.90065 9.85333 1.33398 9.28 1.33398 8.58667Z" stroke="white" stroke-width="1.5" stroke-miterlimit="10" stroke-linecap="round" stroke-linejoin="round"/>
</svg>
