<svg width="92" height="28" viewBox="0 0 92 28" fill="none" xmlns="http://www.w3.org/2000/svg">
<path d="M10.973 11.5C10.9257 10.9081 10.7037 10.4465 10.3072 10.1151C9.91655 9.78362 9.32173 9.6179 8.52273 9.6179C8.01373 9.6179 7.59647 9.68004 7.27095 9.80433C6.95135 9.9227 6.71461 10.0855 6.56072 10.2926C6.40684 10.4998 6.32694 10.7365 6.32102 11.0028C6.30919 11.2218 6.34766 11.4201 6.43644 11.5977C6.53113 11.7693 6.6791 11.9261 6.88033 12.0682C7.08156 12.2043 7.33902 12.3286 7.6527 12.4411C7.96638 12.5535 8.33925 12.6541 8.77131 12.7429L10.2628 13.0625C11.2689 13.2756 12.1301 13.5567 12.8462 13.9059C13.5624 14.2551 14.1483 14.6664 14.604 15.1399C15.0598 15.6075 15.3942 16.1342 15.6072 16.7202C15.8262 17.3061 15.9387 17.9453 15.9446 18.6378C15.9387 19.8333 15.6398 20.8454 15.0479 21.674C14.4561 22.5026 13.6097 23.1329 12.5089 23.565C11.4139 23.997 10.0971 24.2131 8.55824 24.2131C6.97798 24.2131 5.59896 23.9793 4.42116 23.5117C3.24929 23.0442 2.33783 22.325 1.68679 21.3544C1.04167 20.3778 0.716146 19.129 0.710227 17.608H5.39773C5.42732 18.1643 5.56641 18.6319 5.81499 19.0107C6.06357 19.3894 6.41276 19.6765 6.86257 19.8718C7.3183 20.0671 7.85985 20.1648 8.48722 20.1648C9.01397 20.1648 9.4549 20.0997 9.81001 19.9695C10.1651 19.8393 10.4344 19.6587 10.6179 19.4279C10.8014 19.1971 10.8961 18.9337 10.902 18.6378C10.8961 18.3596 10.8043 18.117 10.6268 17.9098C10.4551 17.6967 10.171 17.5073 9.7745 17.3416C9.37796 17.17 8.84233 17.0102 8.16761 16.8622L6.35653 16.4716C4.74669 16.1224 3.47715 15.5394 2.54794 14.7227C1.62464 13.9 1.16596 12.7784 1.17188 11.358C1.16596 10.2038 1.47372 9.19472 2.09517 8.33061C2.72254 7.46058 3.58961 6.78291 4.69638 6.29758C5.80907 5.81226 7.08452 5.5696 8.52273 5.5696C9.99053 5.5696 11.2601 5.81522 12.3313 6.30646C13.4026 6.7977 14.2282 7.49018 14.8082 8.38388C15.3942 9.27166 15.6901 10.3104 15.696 11.5H10.973ZM17.8223 24V5.81818H25.6703C27.0197 5.81818 28.2005 6.08452 29.2125 6.61719C30.2246 7.14986 31.0118 7.89856 31.574 8.86328C32.1363 9.82801 32.4174 10.9555 32.4174 12.2457C32.4174 13.5478 32.1274 14.6753 31.5474 15.6282C30.9733 16.5811 30.1654 17.315 29.1238 17.8299C28.088 18.3448 26.8777 18.6023 25.4927 18.6023H20.8052V14.767H24.4984C25.0784 14.767 25.5726 14.6664 25.981 14.4652C26.3953 14.258 26.7119 13.9651 26.9309 13.5863C27.1558 13.2075 27.2683 12.7607 27.2683 12.2457C27.2683 11.7249 27.1558 11.281 26.9309 10.9141C26.7119 10.5412 26.3953 10.2571 25.981 10.0618C25.5726 9.86056 25.0784 9.75994 24.4984 9.75994H22.7583V24H17.8223ZM34.2285 24V5.81818H47.3322V9.79545H39.1646V12.9205H46.6575V16.8977H39.1646V20.0227H47.2967V24H34.2285ZM56.776 24H49.7803V5.81818H56.705C58.5753 5.81818 60.191 6.18217 61.5523 6.91016C62.9195 7.63222 63.973 8.67389 64.7128 10.0352C65.4585 11.3905 65.8314 13.0152 65.8314 14.9091C65.8314 16.803 65.4615 18.4306 64.7217 19.7919C63.9819 21.1473 62.9343 22.1889 61.5789 22.9169C60.2236 23.639 58.6226 24 56.776 24ZM54.7164 19.8097H56.5985C57.4981 19.8097 58.2645 19.6647 58.8978 19.3746C59.537 19.0846 60.0223 18.5845 60.3538 17.8743C60.6911 17.1641 60.8598 16.1757 60.8598 14.9091C60.8598 13.6425 60.6882 12.6541 60.3449 11.9439C60.0075 11.2337 59.5104 10.7335 58.8534 10.4435C58.2024 10.1535 57.4034 10.0085 56.4564 10.0085H54.7164V19.8097ZM73.0513 5.81818V24H68.1152V5.81818H73.0513ZM74.8935 9.79545V5.81818H90.696V9.79545H85.2273V24H80.3622V9.79545H74.8935Z" fill="#9BEC00"/>
</svg>
